M48
;DRILL file {KiCad (5.0.1)-4} date 04-Sep-22 8:14:56 PM
;FORMAT={-:-/ absolute / metric / decimal}
FMAT,2
METRIC,TZ
T1C0.400
T2C0.500
T3C0.550
T4C0.600
T5C0.850
T6C1.200
T7C4.300
T8C4.500
T9C0.800
T10C0.900
%
G90
G05
M71
T1
X109.5Y-70.2
X110.4Y-71.4
X112.6Y-58.9
X112.6Y-63.85
X112.6Y-78.9
X113.1Y-73.9
X113.1Y-74.8
X113.5Y-61.1
X114.4Y-66.6
X114.4Y-67.5
X114.7Y-61.1
X115.1Y-71.4
X115.15Y-75.55
X116.4Y-63.6
X116.4Y-75.6
X116.65Y-66.35
X118.95Y-62.3
X119.4Y-77.5
X120.65Y-56.3
X120.7Y-61.6
X121.25Y-86.3
X121.3Y-53.
X121.85Y-77.5
X125.Y-53.15
X125.Y-86.2
X125.45Y-57.7
X128.5Y-79.1
X128.75Y-91.5
X128.8Y-76.35
X128.8Y-89.15
X129.275Y-86.6
X129.275Y-87.45
X129.3Y-79.1
X130.5Y-50.9
X130.5Y-58.1
X130.5Y-77.1
X130.5Y-78.3
X130.85Y-91.5
X130.9Y-89.15
X131.475Y-86.6
X131.475Y-87.45
X131.5Y-78.7
X131.5Y-79.5
X131.95Y-65.6
X132.Y-60.8
X132.Y-64.6
X132.5Y-50.9
X133.5Y-50.9
X133.6Y-91.
X133.6Y-91.8
X133.7Y-88.8
X133.7Y-89.6
X134.4Y-65.4
X134.45Y-90.75
X134.45Y-92.35
X134.5Y-50.9
X134.7Y-89.1
X136.6Y-62.75
X137.Y-81.6
X138.1Y-82.6
X138.4Y-87.6
X139.3Y-76.1
X140.1Y-76.1
X140.1Y-77.1
X141.Y-68.1
X141.1Y-62.8
X142.2Y-65.6
X143.Y-65.6
X143.1Y-66.5
X144.5Y-74.6
X144.5Y-75.4
X144.5Y-76.2
X144.5Y-77.
T2
X121.25Y-52.
X122.5Y-52.
X123.75Y-52.
X125.Y-52.
X121.25Y-87.4
X122.5Y-87.4
X123.75Y-87.4
X125.Y-87.4
T4
X141.075Y-51.85
X142.02Y-49.57
X142.02Y-54.13
X144.3Y-48.625
X144.3Y-55.075
X146.58Y-49.57
X146.58Y-54.13
X147.525Y-51.85
X141.075Y-86.95
X142.064Y-84.564
X142.064Y-89.336
X144.45Y-83.575
X144.45Y-90.325
X146.836Y-84.564
X146.836Y-89.336
X147.825Y-86.95
X109.775Y-87.
X110.72Y-84.72
X110.72Y-89.28
X113.Y-83.775
X113.Y-90.225
X115.28Y-84.72
X115.28Y-89.28
X116.225Y-87.
X109.625Y-52.
X110.614Y-49.614
X110.614Y-54.386
X113.Y-48.625
X113.Y-55.375
X115.386Y-49.614
X115.386Y-54.386
X116.375Y-52.
T6
X146.55Y-75.75
X146.55Y-79.25
T7
X144.3Y-51.85
X113.Y-87.
T8
X144.45Y-86.95
X113.Y-52.
T9
X145.15Y-65.45
X145.15Y-70.45
T10
X109.6Y-60.1
X109.6Y-63.1
T3
X147.575Y-64.075G85X148.225Y-64.075
G05
X147.575Y-71.825G85X148.225Y-71.825
G05
T5
X143.825Y-64.225G85X144.375Y-64.225
G05
X143.825Y-71.675G85X144.375Y-71.675
G05
T0
M30
